<svg width="355" height="100" viewBox="0 0 355 100" fill="none" xmlns="http://www.w3.org/2000/svg">
<path d="M129.692 69.4883C127.902 69.4883 126.258 69.293 124.761 68.9023C123.28 68.5117 122.026 67.9746 121.001 67.291V60.6016C122.482 61.4316 123.931 62.0827 125.347 62.5547C126.779 63.0104 128.244 63.2383 129.741 63.2383C130.571 63.2383 131.336 63.165 132.036 63.0186C132.752 62.8558 133.371 62.6117 133.892 62.2861C134.412 61.9606 134.819 61.5537 135.112 61.0654C135.405 60.5771 135.552 60.0075 135.552 59.3564C135.552 58.4287 135.365 57.6556 134.99 57.0371C134.632 56.4023 134.128 55.8164 133.477 55.2793C132.842 54.7422 132.101 54.1644 131.255 53.5459C130.262 52.8298 129.294 52.016 128.35 51.1045C127.422 50.193 126.657 49.1351 126.055 47.9307C125.452 46.71 125.151 45.2858 125.151 43.6582C125.151 42.0632 125.436 40.6064 126.006 39.2881C126.592 37.9697 127.422 36.8223 128.496 35.8457C129.57 34.8691 130.856 34.1204 132.354 33.5996C133.867 33.0625 135.552 32.7939 137.407 32.7939C139.246 32.7939 140.947 32.9974 142.51 33.4043C144.089 33.7949 145.618 34.3971 147.1 35.2109L144.438 40.8994C143.169 40.2972 141.956 39.8496 140.801 39.5566C139.661 39.2474 138.53 39.0928 137.407 39.0928C136.74 39.0928 136.121 39.1904 135.552 39.3857C134.998 39.5648 134.51 39.8333 134.087 40.1914C133.68 40.5332 133.363 40.9482 133.135 41.4365C132.907 41.9248 132.793 42.4782 132.793 43.0967C132.793 43.943 132.964 44.6673 133.306 45.2695C133.664 45.8717 134.168 46.4333 134.819 46.9541C135.487 47.4587 136.284 48.0202 137.212 48.6387C138.53 49.5013 139.621 50.429 140.483 51.4219C141.362 52.3984 142.013 53.4645 142.437 54.6201C142.876 55.7757 143.096 57.0534 143.096 58.4531C143.096 60.3249 142.746 61.9525 142.046 63.3359C141.346 64.7194 140.378 65.8669 139.141 66.7783C137.92 67.6898 136.496 68.3734 134.868 68.8291C133.257 69.2686 131.532 69.4883 129.692 69.4883ZM154.867 69.4883C152.979 69.4883 151.262 69.1546 149.716 68.4873C148.186 67.8037 146.965 66.7295 146.054 65.2646C145.159 63.7835 144.711 61.8467 144.711 59.4541C144.711 57.4847 144.914 55.5967 145.321 53.79C145.728 51.9834 146.33 50.3151 147.128 48.7852C147.925 47.2552 148.91 45.9287 150.082 44.8057C151.254 43.6663 152.597 42.7793 154.11 42.1445C155.624 41.5098 157.309 41.1924 159.164 41.1924C160.792 41.1924 162.248 41.347 163.534 41.6562C164.836 41.9655 166.049 42.3968 167.172 42.9502L164.926 48.541C164.047 48.1667 163.184 47.8411 162.338 47.5645C161.492 47.2878 160.531 47.1494 159.457 47.1494C158.301 47.1494 157.268 47.4831 156.356 48.1504C155.461 48.8177 154.696 49.7129 154.062 50.8359C153.443 51.959 152.971 53.2204 152.646 54.6201C152.32 56.0036 152.157 57.4115 152.157 58.8438C152.157 59.8691 152.32 60.7318 152.646 61.4316C152.987 62.1315 153.467 62.6605 154.086 63.0186C154.721 63.3766 155.478 63.5557 156.356 63.5557C157.593 63.5557 158.741 63.3685 159.799 62.9941C160.857 62.6035 161.947 62.1234 163.07 61.5537V67.5596C161.931 68.1618 160.702 68.6338 159.384 68.9756C158.065 69.3174 156.56 69.4883 154.867 69.4883ZM163.587 69L171.644 31.0117H178.992L177.576 37.6035C177.43 38.3522 177.226 39.2067 176.966 40.167C176.722 41.111 176.461 42.0469 176.185 42.9746C175.908 43.8861 175.656 44.6755 175.428 45.3428H175.623C176.29 44.5127 177.007 43.7884 177.771 43.1699C178.553 42.5352 179.399 42.0469 180.311 41.7051C181.222 41.3633 182.215 41.1924 183.289 41.1924C184.852 41.1924 186.154 41.5179 187.195 42.1689C188.253 42.8037 189.043 43.707 189.563 44.8789C190.084 46.0508 190.345 47.4424 190.345 49.0537C190.345 49.6559 190.296 50.3314 190.198 51.0801C190.101 51.8288 189.962 52.6182 189.783 53.4482L186.536 69H179.188L182.532 53.0576C182.662 52.5042 182.76 51.9834 182.825 51.4951C182.89 51.0068 182.923 50.5592 182.923 50.1523C182.923 49.127 182.703 48.3701 182.264 47.8818C181.824 47.3936 181.165 47.1494 180.286 47.1494C179.179 47.1494 178.178 47.6296 177.283 48.5898C176.388 49.5339 175.607 50.8034 174.939 52.3984C174.288 53.9935 173.751 55.7594 173.328 57.6963L170.936 69H163.587ZM201.555 69.4883C199.504 69.4883 197.689 69.0651 196.11 68.2188C194.548 67.3724 193.319 66.168 192.424 64.6055C191.545 63.0267 191.105 61.1549 191.105 58.9902C191.105 57.0534 191.293 55.2061 191.667 53.4482C192.058 51.6742 192.635 50.0465 193.4 48.5654C194.182 47.068 195.15 45.7741 196.306 44.6836C197.478 43.5768 198.837 42.7223 200.383 42.1201C201.929 41.5016 203.671 41.1924 205.607 41.1924C207.723 41.1924 209.554 41.6237 211.101 42.4863C212.647 43.3327 213.843 44.5615 214.689 46.1729C215.536 47.7842 215.959 49.7292 215.959 52.0078C215.959 53.8633 215.772 55.6536 215.397 57.3789C215.039 59.0879 214.486 60.6829 213.737 62.1641C212.989 63.6289 212.045 64.9147 210.905 66.0215C209.766 67.112 208.415 67.9665 206.853 68.585C205.306 69.1872 203.54 69.4883 201.555 69.4883ZM202.165 63.5068C202.979 63.5068 203.719 63.3034 204.387 62.8965C205.054 62.4733 205.648 61.8955 206.169 61.1631C206.69 60.4144 207.121 59.5599 207.463 58.5996C207.821 57.623 208.09 56.5732 208.269 55.4502C208.464 54.3271 208.562 53.1797 208.562 52.0078C208.562 51.0801 208.448 50.2581 208.22 49.542C208.008 48.8096 207.642 48.2399 207.121 47.833C206.617 47.4098 205.933 47.1982 205.07 47.1982C204.175 47.1982 203.369 47.4505 202.653 47.9551C201.953 48.4434 201.343 49.1025 200.822 49.9326C200.301 50.7627 199.87 51.6904 199.528 52.7158C199.187 53.7412 198.926 54.7992 198.747 55.8896C198.584 56.9639 198.503 57.9974 198.503 58.9902C198.503 60.4714 198.804 61.5944 199.406 62.3594C200.008 63.1243 200.928 63.5068 202.165 63.5068ZM226.803 69.4883C224.752 69.4883 222.937 69.0651 221.358 68.2188C219.796 67.3724 218.567 66.168 217.672 64.6055C216.793 63.0267 216.354 61.1549 216.354 58.9902C216.354 57.0534 216.541 55.2061 216.915 53.4482C217.306 51.6742 217.883 50.0465 218.648 48.5654C219.43 47.068 220.398 45.7741 221.554 44.6836C222.726 43.5768 224.085 42.7223 225.631 42.1201C227.177 41.5016 228.919 41.1924 230.855 41.1924C232.971 41.1924 234.802 41.6237 236.349 42.4863C237.895 43.3327 239.091 44.5615 239.938 46.1729C240.784 47.7842 241.207 49.7292 241.207 52.0078C241.207 53.8633 241.02 55.6536 240.646 57.3789C240.287 59.0879 239.734 60.6829 238.985 62.1641C238.237 63.6289 237.293 64.9147 236.153 66.0215C235.014 67.112 233.663 67.9665 232.101 68.585C230.554 69.1872 228.788 69.4883 226.803 69.4883ZM227.413 63.5068C228.227 63.5068 228.967 63.3034 229.635 62.8965C230.302 62.4733 230.896 61.8955 231.417 61.1631C231.938 60.4144 232.369 59.5599 232.711 58.5996C233.069 57.623 233.338 56.5732 233.517 55.4502C233.712 54.3271 233.81 53.1797 233.81 52.0078C233.81 51.0801 233.696 50.2581 233.468 49.542C233.256 48.8096 232.89 48.2399 232.369 47.833C231.865 47.4098 231.181 47.1982 230.318 47.1982C229.423 47.1982 228.618 47.4505 227.901 47.9551C227.201 48.4434 226.591 49.1025 226.07 49.9326C225.549 50.7627 225.118 51.6904 224.776 52.7158C224.435 53.7412 224.174 54.7992 223.995 55.8896C223.832 56.9639 223.751 57.9974 223.751 58.9902C223.751 60.4714 224.052 61.5944 224.654 62.3594C225.257 63.1243 226.176 63.5068 227.413 63.5068ZM240.308 69L248.364 31.0117H255.713L247.656 69H240.308ZM264.827 69L263.729 33.3066H270.735L270.882 52.7891C270.882 54.0423 270.857 55.4421 270.809 56.9883C270.76 58.5345 270.67 59.9587 270.54 61.2607H270.735C271.191 59.9587 271.696 58.5671 272.249 57.0859C272.819 55.5885 273.331 54.3271 273.787 53.3018L282.796 33.3066H289.388L289.876 53.3018C289.909 54.1481 289.909 55.3525 289.876 56.915C289.843 58.4613 289.778 59.9098 289.681 61.2607H289.876C290.185 60.333 290.519 59.3564 290.877 58.3311C291.251 57.3057 291.626 56.3047 292 55.3281C292.374 54.3516 292.716 53.4889 293.025 52.7402L301.082 33.3066H308.626L292.83 69H284.383L283.992 52.7402C283.96 51.2917 283.935 50.0954 283.919 49.1514C283.903 48.1911 283.895 47.3285 283.895 46.5635C283.895 45.7985 283.911 44.9928 283.943 44.1465H283.748C283.325 45.4811 282.885 46.7507 282.43 47.9551C281.974 49.1595 281.494 50.3232 280.989 51.4463L273.079 69H264.827ZM309.875 69.4883C308.557 69.4883 307.312 69.1628 306.14 68.5117C304.968 67.8607 304.007 66.8109 303.259 65.3623C302.526 63.9137 302.16 61.9932 302.16 59.6006C302.16 57.8102 302.347 56.0361 302.722 54.2783C303.112 52.5205 303.666 50.8604 304.382 49.2979C305.114 47.7191 305.993 46.3275 307.019 45.123C308.06 43.9023 309.232 42.9421 310.534 42.2422C311.853 41.5423 313.277 41.1924 314.807 41.1924C315.962 41.1924 316.971 41.3633 317.834 41.7051C318.697 42.0306 319.437 42.4945 320.056 43.0967C320.674 43.6989 321.179 44.3988 321.569 45.1963H321.765L323.156 41.7051H328.82L323.01 69H317.517L317.858 65.46H317.663C317.012 66.2575 316.304 66.9574 315.539 67.5596C314.774 68.1618 313.928 68.6338 313 68.9756C312.072 69.3174 311.031 69.4883 309.875 69.4883ZM312.756 63.5557C313.765 63.5557 314.701 63.165 315.563 62.3838C316.426 61.5863 317.167 60.5527 317.785 59.2832C318.404 58.0137 318.843 56.6709 319.104 55.2549C319.234 54.6038 319.323 53.9528 319.372 53.3018C319.437 52.6344 319.47 51.9183 319.47 51.1533C319.47 49.9977 319.16 49.0456 318.542 48.2969C317.94 47.5319 317.11 47.1494 316.052 47.1494C315.336 47.1494 314.652 47.3854 314.001 47.8574C313.366 48.3132 312.78 48.9479 312.243 49.7617C311.706 50.5592 311.234 51.4788 310.827 52.5205C310.437 53.5459 310.135 54.6364 309.924 55.792C309.712 56.9476 309.606 58.1032 309.606 59.2588C309.606 60.6748 309.883 61.749 310.437 62.4814C310.99 63.1976 311.763 63.5557 312.756 63.5557ZM325.846 81.0117C324.967 81.0117 324.251 80.9629 323.697 80.8652C323.128 80.7676 322.647 80.6618 322.257 80.5479V74.6885C322.68 74.7699 323.119 74.8431 323.575 74.9082C324.015 74.9733 324.519 75.0059 325.089 75.0059C326.635 75.0059 327.913 74.5501 328.922 73.6387C329.931 72.7435 330.81 71.596 331.559 70.1963L332.193 69L328.189 41.7051H335.392L336.759 54.3516C336.84 55.1003 336.897 55.9059 336.93 56.7686C336.979 57.6149 337.011 58.4531 337.027 59.2832C337.044 60.1133 337.052 60.8538 337.052 61.5049H337.247C337.475 60.9515 337.703 60.333 337.931 59.6494C338.175 58.9658 338.451 58.2253 338.761 57.4277C339.086 56.6139 339.469 55.7513 339.908 54.8398L346.256 41.7051H354.239L337.638 72.9062C336.661 74.7454 335.562 76.2673 334.342 77.4717C333.137 78.6761 331.827 79.5632 330.411 80.1328C328.995 80.7188 327.473 81.0117 325.846 81.0117Z" fill="black"/>
<path d="M52.7778 25H58.3334V55.5556H52.7778V25Z" fill="#99AAB5"/>
<path d="M27.7779 25C22.2223 30.5556 16.6667 38.8889 16.6667 44.4444C16.6667 55.5556 30.5556 47.2222 30.5556 47.2222V25H27.7779Z" fill="#55ACEE"/>
<path d="M13.8889 100C20.0254 100 25.0001 95.0254 25.0001 88.8889C25.0001 82.7524 20.0254 77.7778 13.8889 77.7778C7.75245 77.7778 2.77783 82.7524 2.77783 88.8889C2.77783 95.0254 7.75245 100 13.8889 100Z" fill="#292F33"/>
<path d="M13.8888 94.4444C16.9571 94.4444 19.4444 91.9571 19.4444 88.8889C19.4444 85.8206 16.9571 83.3333 13.8888 83.3333C10.8206 83.3333 8.33325 85.8206 8.33325 88.8889C8.33325 91.9571 10.8206 94.4444 13.8888 94.4444Z" fill="#99AAB5"/>
<path d="M80.5556 63.8889H75.0001C73.5267 63.8889 72.1136 64.4742 71.0717 65.5161C70.0298 66.5579 69.4445 67.971 69.4445 69.4444V83.3333C69.4445 84.8068 70.0298 86.2198 71.0717 87.2617C72.1136 88.3036 73.5267 88.8889 75.0001 88.8889H80.5556C82.0291 88.8889 83.4421 88.3036 84.484 87.2617C85.5259 86.2198 86.1112 84.8068 86.1112 83.3333V69.4444C86.1112 67.971 85.5259 66.5579 84.484 65.5161C83.4421 64.4742 82.0291 63.8889 80.5556 63.8889ZM52.7779 63.8889H47.2223C45.7489 63.8889 44.3358 64.4742 43.2939 65.5161C42.2521 66.5579 41.6667 67.971 41.6667 69.4444V83.3333C41.6667 84.8068 42.2521 86.2198 43.2939 87.2617C44.3358 88.3036 45.7489 88.8889 47.2223 88.8889H52.7779C54.2513 88.8889 55.6644 88.3036 56.7062 87.2617C57.7481 86.2198 58.3334 84.8068 58.3334 83.3333V69.4444C58.3334 67.971 57.7481 66.5579 56.7062 65.5161C55.6644 64.4742 54.2513 63.8889 52.7779 63.8889Z" fill="#1E5200"/>
<path d="M5.55544 78.825C1.70266 79.45 -1.614 75.625 2.77766 72.0611C8.33322 67.5528 22.2221 65.2972 27.7777 67.5528C33.3332 69.8083 33.3332 91.6667 30.5554 91.6667C27.7777 91.6667 19.4443 76.5694 5.55544 78.825Z" fill="#5C913B"/>
<path d="M30.5556 91.6667H66.6667C69.4445 91.6667 72.2222 91.6667 72.2222 86.1111C72.2222 83.3333 75 75 80.5556 75C86.1111 75 94.4445 83.3333 94.4445 86.1111C94.4445 88.8889 94.4445 91.6667 97.2222 91.6667C100 91.6667 100 88.8889 100 86.1111V52.7778H77.7778C77.7778 61.1111 75 75 75 75C75 75 72.2222 72.2222 72.2222 77.7778C72.2222 79.4611 69.4445 83.3333 66.6667 83.3333H63.8889C61.1111 83.3333 58.3334 81.4833 58.3334 78.6889V52.7778C58.3334 50 52.7778 50 52.7778 52.7778V78.6889C52.7778 81.4833 50.7278 83.3333 48.1695 83.3333H38.9195C36.1111 83.3333 33.3334 80.5556 33.3334 77.7778V52.7778H13.8889C13.8889 69.4445 27.7778 91.6667 30.5556 91.6667Z" fill="#3E721D"/>
<path d="M94.4443 88.8889C94.4443 91.6667 97.2221 88.8889 97.2221 83.3333C97.2221 75 94.9082 69.4445 83.3332 69.4445C71.7582 69.4445 69.4443 77.7778 69.4443 83.3333C69.4443 86.1111 72.2221 91.6667 72.2221 88.8889C72.2221 86.1111 74.0749 83.3333 83.3332 83.3333C92.5916 83.3333 94.4443 86.1111 94.4443 88.8889Z" fill="#5C913B"/>
<path d="M33.3334 52.7778H13.8889C13.8889 50 16.6667 44.4445 16.6667 44.4445H27.7778C28.5145 44.4445 29.2211 44.1518 29.742 43.6309C30.2629 43.1099 30.5556 42.4034 30.5556 41.6667V30.5556C30.5556 30.5556 25 30.5556 25 25C25 24.0945 25.2945 23.1889 25.6945 22.3778C26.5917 20.5556 28.4945 19.4445 30.5278 19.4445H91.6667C97.2222 19.4445 100 33.3333 100 52.7778H77.7778C77.7778 52.7778 77.7778 30.5556 69.4445 30.5556H33.3334V52.7778Z" fill="#FFAC33"/>
<path d="M83.3333 100C89.4698 100 94.4444 95.0254 94.4444 88.8889C94.4444 82.7524 89.4698 77.7778 83.3333 77.7778C77.1968 77.7778 72.2222 82.7524 72.2222 88.8889C72.2222 95.0254 77.1968 100 83.3333 100Z" fill="#292F33"/>
<path d="M83.3334 94.4444C86.4016 94.4444 88.8889 91.9571 88.8889 88.8889C88.8889 85.8206 86.4016 83.3333 83.3334 83.3333C80.2651 83.3333 77.7778 85.8206 77.7778 88.8889C77.7778 91.9571 80.2651 94.4444 83.3334 94.4444Z" fill="#99AAB5"/>
<path d="M25 51.3889V48.6111C25 48.2428 24.8537 47.8895 24.5932 47.629C24.3328 47.3686 23.9795 47.2222 23.6111 47.2222H15.4222C14.6834 49.0222 13.8889 51.2889 13.8889 52.7778H23.6111C23.9795 52.7778 24.3328 52.6315 24.5932 52.371C24.8537 52.1105 25 51.7573 25 51.3889Z" fill="#F4900C"/>
</svg>
